<?xml version="1.0" encoding="utf-8"?>
<!-- Generator: Adobe Illustrator 26.5.0, SVG Export Plug-In . SVG Version: 6.00 Build 0)  -->
<svg version="1.1" xmlns="http://www.w3.org/2000/svg" xmlns:xlink="http://www.w3.org/1999/xlink" x="0px" y="0px"
	 viewBox="0 0 0 0" style="enable-background:new 0 0 0 0;" xml:space="preserve">
<style type="text/css">
	.st0{fill:#ZFFFFFF;}
	.st1{fill:none;stroke:#000000;stroke-miterlimit:10;}
	.st2{fill:#FFFFFF;}
	.st3{fill:none;}
	.st4{font-family:'Gilroy-ExtraBold';}
	.st5{font-size:224.8416px;}
	.st6{font-size:27.2535px;}
	.st7{letter-spacing:2;}
</style>
<g id="Background">
</g>
<g id="Objects">
</g>
<g id="Capa_4">
	<g>
		<g>
			<rect x="138.33" y="175.22" class="st3" width="223.33" height="188.1"/>
			<text transform="matrix(1 0 0 1 184.2294 332.6038)" class="st4 st5">S</text>
			<rect x="134.9" y="241.56" class="st3" width="230.19" height="30.67"/>
			<text transform="matrix(1 0 0 1 142.3847 260.635)" class="st4 st6 st7">·19               85·</text>
			<path d="M348.64,138.8v-22.41L250,84.95l-98.64,31.43v22.41H115.8v158.09l1.98,3.96c1.46,2.9,36.62,71.52,124.59,110.79
				l7.64,3.41l7.64-3.41c87.96-39.27,123.12-107.89,124.58-110.79l1.97-3.96V138.8H348.64z M373.98,294.47l-0.9,1.8
				c-1.39,2.77-34.94,68.23-119.6,106.04l-3.47,1.55l-3.47-1.55c-84.67-37.8-118.22-103.27-119.61-106.04l-0.9-1.8V149.02h35.56
				v-25.17L250,95.68l88.41,28.17v25.17h35.56V294.47z"/>
			<path class="st1" d="M329.9,157.53v-27.46L250,104.62l-79.91,25.46v27.46h-35.56v134.92c0,0,32.6,65.08,115.47,102.07
				c82.86-36.99,115.46-102.07,115.46-102.07V157.53H329.9z"/>
			<g>
				<polygon points="250,125.6 255.31,136.37 267.19,138.09 258.6,146.47 260.63,158.3 250,152.71 239.38,158.3 241.41,146.47 
					232.81,138.09 244.69,136.37 				"/>
				<g>
					<polygon points="302.14,145.36 305.97,153.11 314.52,154.35 308.33,160.39 309.79,168.91 302.14,164.89 294.48,168.91 
						295.95,160.39 289.75,154.35 298.31,153.11 					"/>
					<polygon points="197.86,145.36 201.69,153.11 210.25,154.35 204.06,160.39 205.52,168.91 197.86,164.89 190.21,168.91 
						191.67,160.39 185.48,154.35 194.04,153.11 					"/>
				</g>
			</g>
			<g>
				<g>
					<polygon points="121.12,202.72 91.13,202.72 102.71,231.54 90.87,260.68 121.12,260.68 					"/>
				</g>
				<g>
					<polygon points="120.69,286.31 55.62,286.31 77.93,231.42 56.08,177.09 120.69,177.09 120.69,187.31 71.2,187.31 88.95,231.43 
						70.8,276.09 120.69,276.09 					"/>
				</g>
				<g>
					<polygon points="378.89,260.68 408.87,260.68 397.29,231.86 409.13,202.72 378.89,202.72 					"/>
				</g>
				<g>
					<polygon points="443.93,286.31 379.31,286.31 379.31,276.09 428.8,276.09 411.05,231.97 429.2,187.31 379.31,187.31 
						379.31,177.09 444.38,177.09 422.08,231.98 					"/>
				</g>
			</g>
		</g>
	</g>
</g>
<g id="Designed_by_Freepik">
</g>
</svg>
