<?xml version="1.0" encoding="utf-8"?>
<!-- Generator: Adobe Illustrator 26.5.0, SVG Export Plug-In . SVG Version: 6.00 Build 0)  -->
<svg version="1.1" xmlns="http://www.w3.org/2000/svg" xmlns:xlink="http://www.w3.org/1999/xlink" x="0px" y="0px"
	 viewBox="0 0 500 500" style="enable-background:new 0 0 500 500;" xml:space="preserve">
<style type="text/css">
	.st0{fill:none;stroke:#000000;stroke-miterlimit:10;}
	.st1{fill:#06302E;}
	.st2{fill:#FFFFFF;}
	.st3{fill:none;stroke:#FFFFFF;stroke-miterlimit:10;}
</style>
<g id="Objects">
</g>
<g id="Capa_4">
</g>
<g id="Capa_5">
	<g>
		<g>
			<g>
				<path class="st2" d="M189.85,296.85l31.03-17.99c5.62,13.04,15.29,21.81,33.05,21.81c17.09,0,21.36-6.75,21.36-12.82
					c0-9.67-8.99-13.49-32.6-20.01c-23.38-6.52-46.32-17.76-46.32-47.89c0-30.35,25.63-47.89,52.84-47.89
					c25.86,0,46.09,12.37,57.56,35.52l-30.35,17.76c-5.4-11.24-12.82-18.21-27.21-18.21c-11.24,0-16.86,5.62-16.86,11.92
					c0,7.19,3.82,12.14,28.33,19.56c23.83,7.19,50.59,15.51,50.59,48.79c0,30.35-24.28,48.34-58.46,48.34
					C219.75,335.75,198.62,320.01,189.85,296.85z"/>
			</g>
			<g>
				<path class="st2" d="M143.68,251.21c0-1.42,1.17-2.59,2.59-2.59s2.59,1.17,2.59,2.59s-1.17,2.59-2.59,2.59
					S143.68,252.62,143.68,251.21z"/>
				<path class="st2" d="M161.2,241.56v19.08h-4.36v-14.47l-3.38,0.93l-1.06-3.73l4.99-1.8H161.2z"/>
				<path class="st2" d="M178.75,251.78l-5.83,8.86h-5.01l4.14-6.02c-3.79-0.3-6.35-3-6.35-6.7c0-3.95,2.89-6.73,7.09-6.73
					c4.22,0,7.08,2.78,7.08,6.73C179.87,249.38,179.46,250.72,178.75,251.78z M172.79,250.55c1.47,0,2.72-0.95,2.72-2.64
					c0-1.69-1.25-2.64-2.72-2.64c-1.44,0-2.73,0.98-2.73,2.64C170.06,249.57,171.34,250.55,172.79,250.55z"/>
				<path class="st2" d="M330.15,255.27c0,3.49-2.51,5.75-7,5.75c-4.5,0-7-2.26-7-5.75c0-1.88,0.87-3.54,2.48-4.58
					c-1.12-0.87-1.83-2.13-1.83-3.84c0-3.71,2.83-5.67,6.35-5.67s6.35,1.96,6.35,5.67c0,1.72-0.71,2.97-1.83,3.84
					C329.28,251.72,330.15,253.39,330.15,255.27z M325.79,254.64c0-1.44-1.12-2.29-2.64-2.29s-2.64,0.84-2.64,2.29
					c0,1.44,1.12,2.29,2.64,2.29S325.79,256.08,325.79,254.64z M321.15,247.12c0,1.06,0.76,1.85,1.99,1.85s1.99-0.79,1.99-1.85
					s-0.76-1.85-1.99-1.85S321.15,246.06,321.15,247.12z"/>
				<path class="st2" d="M347.18,254.64c0,4.2-3.27,6.38-6.95,6.38c-3.03,0-5.64-1.28-6.81-4.09l3.76-2.18
					c0.44,1.25,1.25,2.02,3.05,2.02c1.8,0,2.59-0.95,2.59-2.13c0-1.17-0.79-2.12-2.45-2.12h-5.97l0.79-10.96h11.04v4.09h-6.95
					l-0.19,2.62h1.55C344.18,248.26,347.18,250.44,347.18,254.64z"/>
				<path class="st2" d="M351.13,251.21c0-1.42,1.17-2.59,2.59-2.59s2.59,1.17,2.59,2.59s-1.17,2.59-2.59,2.59
					S351.13,252.62,351.13,251.21z"/>
			</g>
			<path class="st2" d="M348.64,138.8v-22.41L250,84.95l-98.64,31.43v22.41H115.8v158.09l1.98,3.96
				c1.46,2.9,36.62,71.52,124.59,110.79l7.64,3.41l7.64-3.41c87.96-39.27,123.12-107.89,124.58-110.79l1.97-3.96V138.8H348.64z
				 M373.98,294.47l-0.9,1.8c-1.39,2.77-34.94,68.23-119.6,106.04l-3.47,1.55l-3.47-1.55c-84.67-37.8-118.22-103.27-119.61-106.04
				l-0.9-1.8V149.02h35.56v-25.17L250,95.68l88.41,28.17v25.17h35.56V294.47z"/>
			<path class="st3" d="M329.9,157.53v-27.46L250,104.62l-79.91,25.46v27.46h-35.56v134.92c0,0,32.6,65.08,115.47,102.07
				c82.86-36.99,115.46-102.07,115.46-102.07V157.53H329.9z"/>
			<g>
				<polygon class="st2" points="250,125.6 255.31,136.37 267.19,138.09 258.6,146.47 260.63,158.3 250,152.71 239.38,158.3 
					241.41,146.47 232.81,138.09 244.69,136.37 				"/>
				<g>
					<polygon class="st2" points="302.14,145.36 305.97,153.11 314.52,154.35 308.33,160.39 309.79,168.91 302.14,164.89 
						294.48,168.91 295.95,160.39 289.75,154.35 298.31,153.11 					"/>
					<polygon class="st2" points="197.86,145.36 201.69,153.11 210.25,154.35 204.06,160.39 205.52,168.91 197.86,164.89 
						190.21,168.91 191.67,160.39 185.48,154.35 194.04,153.11 					"/>
				</g>
			</g>
			<g>
				<g>
					<polygon class="st2" points="121.12,202.72 91.13,202.72 102.71,231.54 90.87,260.68 121.12,260.68 					"/>
				</g>
				<g>
					<polygon class="st2" points="120.69,286.31 55.62,286.31 77.93,231.42 56.08,177.09 120.69,177.09 120.69,187.31 71.2,187.31 
						88.95,231.43 70.8,276.09 120.69,276.09 					"/>
				</g>
				<g>
					<polygon class="st2" points="378.89,260.68 408.87,260.68 397.29,231.86 409.13,202.72 378.89,202.72 					"/>
				</g>
				<g>
					<polygon class="st2" points="443.93,286.31 379.31,286.31 379.31,276.09 428.8,276.09 411.05,231.97 429.2,187.31 
						379.31,187.31 379.31,177.09 444.38,177.09 422.08,231.98 					"/>
				</g>
			</g>
		</g>
	</g>
</g>
</svg>
