<?xml version="1.0" encoding="utf-8"?>
<!-- Generator: Adobe Illustrator 26.5.0, SVG Export Plug-In . SVG Version: 6.00 Build 0)  -->
<svg version="1.1" xmlns="http://www.w3.org/2000/svg" xmlns:xlink="http://www.w3.org/1999/xlink" x="0px" y="0px"
	 viewBox="0 0 500 500" style="enable-background:new 0 0 500 500;" xml:space="preserve">
<style type="text/css">
	.st0{fill:none;stroke:#000000;stroke-miterlimit:10;}
	.st1{fill:#06302E;}
	.st2{fill:#FFFFFF;}
	.st3{fill:none;stroke:#FFFFFF;stroke-miterlimit:10;}
</style>
<g id="Objects">
	<g>
		<g>
			<rect x="-196.16" y="315.33" style="fill:none;" width="75.24" height="61.07"/>
			<text transform="matrix(1 0 0 1 -183.002 368.0166)" style="font-family:'Gilroy-ExtraBold'; font-size:75.2727px;">U</text>
			<rect x="-173.96" y="303.53" style="fill:none;" width="30.85" height="7.01"/>
			<text transform="matrix(1 0 0 1 -171.1338 309.9121)" style="font-family:'Gilroy-Light'; font-size:9.124px;">·1985·</text>
			<path d="M-112.81,305.73l-0.76-5.79l-5.94,0.31c-0.07,0-0.38,0.02-0.88,0.02c-4.92,0-21.83-1.04-33.23-14.53l-4.92-5.82
				l-4.92,5.82c-11.4,13.48-28.32,14.53-33.23,14.53c-0.5,0-0.8-0.01-0.85-0.01l-5.99-0.36l-0.74,5.84
				c-0.08,0.64-1.96,15.97,2.23,34.11c5.68,24.59,19.81,42.54,40.86,51.9l2.64,1.17l2.64-1.17c21.05-9.36,35.18-27.3,40.86-51.9
				C-110.86,321.7-112.73,306.38-112.81,305.73z M-118.44,339.08c-5.43,23.51-18.88,40.64-38.89,49.54l-1.2,0.53l-1.2-0.53
				c-20.02-8.9-33.46-26.03-38.9-49.54c-4.06-17.56-2.25-32.31-2.17-32.93l0.34-2.65l2.72,0.16c0.04,0,0.41,0.02,1.06,0.02
				c5.3,0,23.55-1.14,35.91-15.76l2.24-2.64l2.24,2.64c12.36,14.63,30.61,15.76,35.91,15.76c0.65,0,1.02-0.02,1.07-0.02l2.71-0.15
				l0.34,2.64C-116.19,306.78-114.39,321.53-118.44,339.08z"/>
			<path class="st0" d="M-158.54,386.02c46.85-20.83,39.38-79.51,39.38-79.51s-24.01,1.42-39.38-16.77
				c-15.38,18.19-39.38,16.77-39.38,16.77S-205.39,365.19-158.54,386.02z"/>
			<g>
				<g>
					<g>
						<g>
							<g>
								<path d="M-210.95,377.85c2.22,3.79,6.34,7.29,10.54,8.71c4.22,1.42,7.2,0.59,8.29-1.25c-2.69-2.72-6.42-5.34-10.32-7.07
									c-0.97-0.44-1.9-0.77-2.77-1c-0.85-0.25-1.64-0.4-2.37-0.44C-209.04,376.72-210.21,377.06-210.95,377.85z"/>
								<path d="M-216.51,364.28c0.56,1.74,1.57,3.48,2.76,5.07c0.6,0.79,1.31,1.51,2.02,2.18c0.7,0.67,1.48,1.25,2.28,1.73
									c0.8,0.48,1.55,0.85,2.26,1.1c0.72,0.24,1.39,0.36,2,0.38c1.21,0.04,2.16-0.31,2.78-0.97c-0.87-1.36-1.91-2.77-3.16-4.07
									c-1.18-1.34-2.62-2.55-4.02-3.63c-0.72-0.53-1.43-0.96-2.1-1.31c-0.67-0.35-1.28-0.61-1.87-0.77
									C-214.74,363.67-215.76,363.76-216.51,364.28z"/>
								<path d="M-218.7,351.57c0.11,0.7,0.27,1.43,0.48,2.16c0.21,0.73,0.55,1.44,0.89,2.15c0.35,0.7,0.75,1.38,1.18,2.01
									c0.47,0.62,0.98,1.2,1.51,1.71c1.05,1.03,2.09,1.64,3.04,1.88c0.94,0.25,1.74,0.15,2.35-0.25c-0.85-2.43-2.36-5.14-4.3-7.24
									C-215.49,351.9-217.34,350.98-218.7,351.57z"/>
								<path d="M-217.87,342.93c0.04,0.93,0.15,1.95,0.51,2.93c0.35,0.97,0.83,1.91,1.41,2.7c1.17,1.57,2.53,2.09,3.42,1.71
									c-0.06-0.43-0.16-0.88-0.3-1.33c-0.12-0.46-0.25-0.92-0.42-1.38c-0.34-0.91-0.81-1.8-1.39-2.59
									C-215.69,343.38-216.91,342.64-217.87,342.93z"/>
								<path d="M-195.4,367.39c1.99,2.58,3.71,6.14,4.56,9.89c0.86,3.72,0.48,6.7-1.26,8c-3.01-2.37-5.52-6.44-6.07-10.41
									c-0.13-1-0.17-1.9-0.09-2.72c0.09-0.83,0.28-1.57,0.54-2.2C-197.19,368.69-196.38,367.83-195.4,367.39z"/>
								<path d="M-201.87,358.34c1.19,2.54,2.01,5.8,2.02,9.05c0.01,0.81-0.05,1.57-0.17,2.26c-0.1,0.69-0.25,1.3-0.46,1.85
									c-0.42,1.09-1.06,1.88-1.89,2.24c-1.03-1.24-1.84-2.84-2.42-4.51c-0.51-1.71-0.83-3.47-0.67-5.18
									c0.06-0.85,0.2-1.6,0.4-2.26c0.21-0.67,0.51-1.25,0.83-1.73C-203.57,359.1-202.75,358.53-201.87,358.34z"/>
								<path d="M-206.27,349.07c0.16,0.56,0.27,1.16,0.34,1.78c0.07,0.62,0.16,1.25,0.17,1.9c0.02,0.65-0.01,1.31-0.08,1.98
									c-0.04,0.65-0.12,1.31-0.26,1.95c-0.29,1.29-0.72,2.36-1.22,3.13c-0.52,0.78-1.16,1.27-1.88,1.41
									c-1.15-2.32-1.48-5.51-0.76-8.14C-209.25,350.44-207.7,349.09-206.27,349.07z"/>
								<path d="M-209.26,342.24c0.14,0.81,0.08,1.72,0.01,2.63c-0.08,0.91-0.29,1.83-0.63,2.69c-0.67,1.71-1.59,2.69-2.6,2.69
									c-0.12-0.42-0.2-0.87-0.26-1.34c-0.04-0.47-0.03-0.96,0-1.44c0.07-0.97,0.27-1.94,0.61-2.79
									C-211.34,342.94-210.24,342.13-209.26,342.24z"/>
								<path d="M-213.61,331.61c-0.78,1.04-1.46,3.08-1.45,5.48c0.02,1.19,0.17,2.31,0.42,3.25c0.27,0.94,0.67,1.7,1.09,2.22
									c0.34-0.58,0.58-1.37,0.76-2.31c0.21-0.94,0.32-2.01,0.29-3.17C-212.51,334.78-212.87,332.77-213.61,331.61z"/>
								<g>
									<path d="M-213.55,342.55c0.02,3.73,0.51,9.1,2.42,15.25c1.86,6.14,5.18,13.03,10.21,19.35c5,6.34,10.82,11.23,16.16,14.76
										c5.36,3.53,10.23,5.79,13.79,6.95c-3.36-1.63-7.97-4.25-13.07-7.97c-5.09-3.72-10.64-8.62-15.52-14.8
										c-4.9-6.15-8.27-12.75-10.38-18.67C-212.1,351.48-213.02,346.24-213.55,342.55z"/>
								</g>
							</g>
						</g>
					</g>
				</g>
				<g>
					<g>
						<g>
							<g>
								<path d="M-121.68,367.39c-1.99,2.58-3.7,6.14-4.56,9.89c-0.86,3.73-0.48,6.7,1.26,8c3.01-2.37,5.52-6.44,6.07-10.41
									c0.13-1,0.17-1.9,0.09-2.72c-0.09-0.83-0.28-1.56-0.54-2.2C-119.88,368.69-120.7,367.83-121.68,367.39z"/>
								<path d="M-115.21,358.34c-1.19,2.54-2.01,5.8-2.02,9.05c-0.01,0.81,0.05,1.57,0.17,2.26c0.1,0.69,0.25,1.3,0.46,1.85
									c0.42,1.09,1.06,1.88,1.9,2.24c1.03-1.24,1.84-2.84,2.42-4.51c0.51-1.71,0.83-3.47,0.67-5.18c-0.06-0.85-0.2-1.6-0.4-2.26
									c-0.21-0.67-0.51-1.25-0.83-1.73C-113.5,359.1-114.32,358.53-115.21,358.34z"/>
								<path d="M-110.8,349.07c-0.16,0.56-0.27,1.16-0.34,1.78c-0.07,0.62-0.16,1.25-0.17,1.9c-0.02,0.65,0.01,1.31,0.08,1.98
									c0.04,0.65,0.12,1.31,0.26,1.95c0.29,1.29,0.72,2.36,1.22,3.13c0.52,0.78,1.17,1.27,1.88,1.41
									c1.15-2.32,1.48-5.51,0.76-8.14C-107.83,350.44-109.37,349.09-110.8,349.07z"/>
								<path d="M-107.82,342.24c-0.14,0.81-0.08,1.72-0.01,2.63c0.08,0.91,0.29,1.83,0.63,2.69c0.67,1.71,1.59,2.69,2.6,2.69
									c0.12-0.42,0.2-0.88,0.26-1.34c0.04-0.47,0.03-0.95,0-1.44c-0.07-0.97-0.27-1.94-0.61-2.79
									C-105.73,342.94-106.84,342.13-107.82,342.24z"/>
								<path d="M-106.12,377.85c-2.22,3.79-6.34,7.29-10.54,8.71c-4.22,1.42-7.2,0.59-8.29-1.25c2.69-2.72,6.42-5.34,10.32-7.08
									c0.97-0.44,1.9-0.76,2.77-1c0.85-0.25,1.64-0.4,2.37-0.44C-108.04,376.72-106.86,377.06-106.12,377.85z"/>
								<path d="M-100.56,364.28c-0.56,1.74-1.57,3.48-2.76,5.07c-0.6,0.79-1.31,1.51-2.02,2.18c-0.7,0.67-1.48,1.25-2.28,1.73
									c-0.8,0.48-1.55,0.85-2.25,1.1c-0.72,0.24-1.39,0.36-2,0.38c-1.21,0.04-2.16-0.31-2.78-0.97c0.87-1.36,1.91-2.77,3.16-4.07
									c1.18-1.34,2.62-2.55,4.02-3.63c0.72-0.53,1.43-0.96,2.1-1.31c0.67-0.35,1.28-0.61,1.87-0.77
									C-102.33,363.67-101.31,363.76-100.56,364.28z"/>
								<path d="M-98.38,351.57c-0.11,0.7-0.27,1.43-0.48,2.16c-0.21,0.73-0.55,1.45-0.89,2.15c-0.35,0.7-0.74,1.38-1.17,2.01
									c-0.47,0.62-0.98,1.2-1.51,1.71c-1.05,1.03-2.09,1.64-3.04,1.88c-0.94,0.25-1.74,0.15-2.35-0.25
									c0.85-2.43,2.35-5.14,4.3-7.24C-101.59,351.9-99.74,350.98-98.38,351.57z"/>
								<path d="M-99.21,342.93c-0.04,0.93-0.15,1.95-0.51,2.93c-0.35,0.97-0.83,1.91-1.4,2.7c-1.17,1.57-2.53,2.09-3.42,1.71
									c0.06-0.43,0.16-0.88,0.3-1.34c0.12-0.45,0.25-0.92,0.42-1.37c0.34-0.91,0.81-1.8,1.39-2.59
									C-101.38,343.38-100.16,342.64-99.21,342.93z"/>
								<path d="M-103.44,331.61c-0.74,1.16-1.1,3.17-1.11,5.47c-0.02,1.15,0.09,2.23,0.29,3.17c0.18,0.93,0.42,1.73,0.76,2.31
									c0.42-0.52,0.83-1.28,1.09-2.22c0.24-0.94,0.4-2.05,0.42-3.25C-101.98,334.69-102.66,332.65-103.44,331.61z"/>
								<g>
									<path d="M-103.5,342.55c-0.53,3.69-1.45,8.93-3.6,14.86c-2.11,5.92-5.48,12.53-10.38,18.68
										c-4.88,6.18-10.43,11.08-15.52,14.81c-5.1,3.72-9.72,6.34-13.08,7.98c3.56-1.16,8.43-3.42,13.79-6.96
										c5.34-3.53,11.16-8.42,16.16-14.76c5.03-6.31,8.36-13.21,10.21-19.35C-104.01,351.66-103.52,346.28-103.5,342.55z"/>
								</g>
							</g>
						</g>
					</g>
				</g>
			</g>
			<polygon points="-158.54,263 -156.21,267.71 -151.01,268.47 -154.77,272.13 -153.88,277.32 -158.54,274.87 -163.19,277.32 
				-162.3,272.13 -166.06,268.47 -160.86,267.71 			"/>
			<g>
				<polygon points="-130.94,277.32 -128.61,282.03 -123.41,282.78 -127.18,286.45 -126.29,291.63 -130.94,289.18 -135.59,291.63 
					-134.7,286.45 -138.47,282.78 -133.27,282.03 				"/>
				<polygon points="-186.13,277.32 -183.81,282.03 -178.61,282.78 -182.37,286.45 -181.48,291.63 -186.13,289.18 -190.79,291.63 
					-189.9,286.45 -193.66,282.78 -188.46,282.03 				"/>
			</g>
		</g>
		<rect x="-237.03" y="408.78" style="fill:none;" width="156.98" height="38.65"/>
		<text transform="matrix(1 0 0 1 -223.3105 426.0362)"><tspan x="0" y="0" style="font-family:'Gilroy-Light'; font-size:24.6477px;">UNIVERSITY </tspan><tspan x="4.15" y="15.69" style="font-family:'Gilroy-Light'; font-size:16.8052px; letter-spacing:2;">·NAME HERE·</tspan></text>
	</g>
	<g>
		<rect x="-237.03" y="209.58" style="fill:none;" width="156.98" height="38.65"/>
		<text transform="matrix(1 0 0 1 -223.3096 226.8316)"><tspan x="0" y="0" style="font-family:'Gilroy-Light'; font-size:24.6477px;">UNIVERSITY </tspan><tspan x="4.15" y="15.68" style="font-family:'Gilroy-Light'; font-size:16.8052px; letter-spacing:2;">·NAME HERE·</tspan></text>
		<g>
			<rect x="-195.92" y="117.69" style="fill:none;" width="74.77" height="62.97"/>
			<text transform="matrix(1 0 0 1 -180.5547 170.3784)" style="font-family:'Gilroy-ExtraBold'; font-size:75.2727px;">S</text>
			<rect x="-194.77" y="140.03" style="fill:none;" width="72.47" height="10.27"/>
			<text transform="matrix(1 0 0 1 -164.1572 146.4126)" style="font-family:'Gilroy-Light'; font-size:9.124px;">·19                 </text>
			<path d="M-125.51,105.5v-7.5l-33.02-10.52l-33.02,10.52v7.5h-11.91v52.93l0.66,1.33c0.49,0.97,12.26,23.94,41.71,37.09l2.56,1.14
				l2.56-1.14c29.45-13.15,41.22-36.12,41.71-37.09l0.66-1.33V105.5H-125.51z M-117.03,157.61l-0.3,0.6
				c-0.46,0.93-11.7,22.84-40.04,35.5l-1.16,0.52l-1.16-0.52c-28.34-12.66-39.58-34.57-40.04-35.5l-0.3-0.6v-48.69h11.91v-8.43
				l29.6-9.43l29.6,9.43v8.43h11.91V157.61z"/>
			<path class="st0" d="M-131.79,111.77v-9.19l-26.75-8.52l-26.75,8.52v9.19h-11.91v45.17c0,0,10.91,21.79,38.66,34.17
				c27.74-12.38,38.66-34.17,38.66-34.17v-45.17H-131.79z"/>
			<g>
				<polygon points="-158.54,101.08 -156.76,104.68 -152.78,105.26 -155.66,108.06 -154.98,112.02 -158.54,110.15 -162.09,112.02 
					-161.41,108.06 -164.29,105.26 -160.31,104.68 				"/>
				<g>
					<polygon points="-141.08,107.69 -139.8,110.29 -136.94,110.7 -139.01,112.73 -138.52,115.58 -141.08,114.23 -143.64,115.58 
						-143.15,112.73 -145.23,110.7 -142.36,110.29 					"/>
					<polygon points="-175.99,107.69 -174.71,110.29 -171.84,110.7 -173.92,112.73 -173.43,115.58 -175.99,114.23 -178.55,115.58 
						-178.06,112.73 -180.13,110.7 -177.27,110.29 					"/>
				</g>
			</g>
			<g>
				<g>
					<polygon points="-201.68,126.9 -211.72,126.9 -207.85,136.54 -211.81,146.3 -201.68,146.3 					"/>
				</g>
				<g>
					<polygon points="-201.83,154.88 -223.61,154.88 -216.14,136.5 -223.46,118.31 -201.83,118.31 -201.83,121.74 -218.39,121.74 
						-212.45,136.51 -218.53,151.46 -201.83,151.46 					"/>
				</g>
				<g>
					<polygon points="-115.39,146.3 -105.35,146.3 -109.23,136.65 -105.26,126.9 -115.39,126.9 					"/>
				</g>
				<g>
					<polygon points="-93.61,154.88 -115.25,154.88 -115.25,151.46 -98.68,151.46 -104.62,136.69 -98.54,121.74 -115.25,121.74 
						-115.25,118.31 -93.46,118.31 -100.93,136.69 					"/>
				</g>
			</g>
		</g>
	</g>
	<g>
		<rect x="-459.96" y="209.58" style="fill:none;" width="156.98" height="38.65"/>
		<text transform="matrix(1 0 0 1 -446.2373 226.8316)"><tspan x="0" y="0" style="font-family:'Gilroy-Light'; font-size:24.6477px;">UNIVERSITY </tspan><tspan x="4.15" y="15.68" style="font-family:'Gilroy-Light'; font-size:16.8052px; letter-spacing:2;">·NAME HERE·</tspan></text>
		<g>
			<rect x="-422.23" y="104.53" style="fill:none;" width="80.74" height="58.23"/>
			<text transform="matrix(1 0 0 1 -407.0596 156.4224)" style="font-family:'Gilroy-ExtraBold'; font-size:74.1322px;">A</text>
			<rect x="-397.28" y="165.04" style="fill:none;" width="30.85" height="10.27"/>
			<text transform="matrix(1 0 0 1 -394.4492 171.4229)" style="font-family:'Gilroy-Light'; font-size:9.124px;">·1985·</text>
			<path class="st0" d="M-381.85,182.9c27.74-12.38,38.66-34.17,38.66-34.17v-45.17c0,0-22.26-1.38-38.66-19.61
				c-16.39,18.23-38.66,19.61-38.66,19.61v45.17C-420.51,148.73-409.6,170.51-381.85,182.9z"/>
			<path d="M-336.95,97.7l-5.84-0.4c-0.2-0.01-20.03-1.56-34.4-17.54l-4.67-5.19l-4.66,5.19c-14.37,15.98-34.2,17.53-34.38,17.54
				l-5.88,0.37v52.55l0.66,1.33c0.49,0.97,12.26,23.94,41.71,37.09l2.56,1.14l2.56-1.14c29.45-13.15,41.22-36.12,41.71-37.09
				l0.67-1.33v-46.65L-336.95,97.7z M-340.35,149.4l-0.3,0.6c-0.46,0.93-11.7,22.84-40.04,35.5l-1.16,0.52l-1.16-0.52
				c-28.35-12.65-39.58-34.57-40.04-35.5l-0.3-0.6v-48.52l2.67-0.17c0.21-0.01,21.35-1.58,36.71-18.67l2.12-2.36l2.12,2.36
				c15.43,17.16,36.5,18.66,36.71,18.67l2.68,0.17V149.4z"/>
			<g>
				<g>
					<g>
						<g>
							<path d="M-428.57,186.85c3.02,3.11,7.82,5.44,12.17,5.71c2.19,0.13,3.93-0.18,5.21-0.83c1.28-0.62,2.07-1.52,2.37-2.56
								c-3.2-1.89-7.36-3.41-11.49-4.08c-1.03-0.17-1.99-0.25-2.88-0.26c-0.87-0.03-1.67,0.03-2.38,0.17
								C-426.98,185.29-428.04,185.91-428.57,186.85z"/>
							<path d="M-436.97,175.09c0.49,0.75,1,1.54,1.66,2.24c0.65,0.7,1.37,1.38,2.12,2.01c0.76,0.62,1.61,1.14,2.44,1.61
								c0.83,0.48,1.71,0.85,2.59,1.11c0.88,0.27,1.69,0.43,2.42,0.5c0.75,0.05,1.42,0,2.01-0.13c1.17-0.26,2-0.83,2.45-1.62
								c-0.55-0.56-1.19-1.06-1.84-1.6c-0.65-0.53-1.35-1.04-2.1-1.5c-1.42-0.99-3.07-1.81-4.66-2.5c-0.81-0.34-1.59-0.59-2.32-0.76
								c-0.71-0.18-1.37-0.29-1.97-0.31C-435.38,174.1-436.35,174.42-436.97,175.09z"/>
							<path d="M-441.72,163.36c0.49,1.3,1.2,2.66,2.21,3.83c0.49,0.59,1.01,1.16,1.56,1.67c0.58,0.5,1.2,0.93,1.82,1.3
								c2.46,1.51,4.59,1.36,5.57,0.33c-1.33-2.12-3.33-4.36-5.65-5.94C-438.52,162.99-440.52,162.5-441.72,163.36z"/>
							<path d="M-442.63,154.91c0.22,0.88,0.54,1.83,1.08,2.69c0.54,0.86,1.19,1.65,1.91,2.28c1.44,1.26,2.89,1.45,3.68,0.9
								c-0.15-0.4-0.34-0.8-0.56-1.21c-0.19-0.41-0.42-0.82-0.68-1.22c-0.51-0.8-1.16-1.54-1.87-2.17
								C-440.41,154.89-441.76,154.45-442.63,154.91z"/>
							<path d="M-415.97,172.97c2.43,1.92,4.82,4.83,6.49,8.18c1.66,3.33,2.03,6.27,0.69,7.98c-3.42-1.46-6.77-4.7-8.19-8.35
								c-0.35-0.92-0.58-1.77-0.69-2.57c-0.09-0.82-0.07-1.56,0.04-2.23C-417.41,174.65-416.81,173.63-415.97,172.97z"/>
							<path d="M-424.01,166.04c1.65,2.11,3.09,4.97,3.79,8.05c0.18,0.77,0.28,1.5,0.32,2.19c0.05,0.68,0.04,1.3-0.04,1.87
								c-0.16,1.14-0.6,2.06-1.32,2.62c-0.61-0.49-1.24-1.01-1.79-1.65c-0.55-0.64-1.06-1.33-1.52-2.05
								c-0.86-1.51-1.55-3.11-1.75-4.77c-0.12-0.82-0.14-1.57-0.09-2.24c0.07-0.69,0.24-1.3,0.45-1.83
								C-425.51,167.16-424.83,166.43-424.01,166.04z"/>
							<path d="M-430.1,158.31c0.53,0.99,0.89,2.16,1.22,3.36c0.15,0.61,0.25,1.24,0.31,1.88c0.08,0.63,0.14,1.26,0.13,1.91
								c-0.05,2.58-0.73,4.41-2.08,5.02c-1.59-1.94-2.57-4.92-2.39-7.57C-432.73,160.24-431.49,158.64-430.1,158.31z"/>
							<path d="M-434.34,152.48c0.29,0.74,0.42,1.61,0.52,2.49c0.1,0.87,0.08,1.79-0.08,2.68c-0.34,1.77-1.02,2.89-2.01,3.12
								c-0.2-0.38-0.37-0.79-0.52-1.22c-0.12-0.44-0.21-0.9-0.28-1.37c-0.12-0.94-0.12-1.9,0.05-2.79
								C-436.24,153.58-435.33,152.58-434.34,152.48z"/>
							<path d="M-440.69,143.27c-0.56,1.15-0.82,3.23-0.35,5.5c0.26,1.13,0.63,2.16,1.05,3.01c0.43,0.84,0.99,1.48,1.5,1.89
								c0.22-0.62,0.29-1.42,0.29-2.35c0.02-0.93-0.09-1.98-0.34-3.07C-438.98,146.06-439.74,144.22-440.69,143.27z"/>
							<g>
								<path d="M-438.48,153.67c0.75,3.54,2.28,8.56,5.39,14c3.06,5.43,7.74,11.25,14,16c6.24,4.79,12.95,7.9,18.85,9.84
									c5.93,1.93,11.09,2.76,14.71,2.91c-3.56-0.66-8.57-1.9-14.3-4.08c-5.71-2.19-12.17-5.38-18.22-10.03
									c-6.08-4.61-10.73-10.11-13.98-15.27C-435.32,161.87-437.24,157.07-438.48,153.67z"/>
							</g>
						</g>
					</g>
				</g>
				<g>
					<g>
						<g>
							<path d="M-346.96,172.96c-2.43,1.92-4.82,4.83-6.49,8.18c-1.66,3.33-2.03,6.27-0.69,7.99c3.42-1.46,6.77-4.71,8.19-8.35
								c0.35-0.92,0.58-1.77,0.69-2.57c0.09-0.82,0.07-1.56-0.04-2.23C-345.52,174.65-346.12,173.63-346.96,172.96z"/>
							<path d="M-338.92,166.04c-1.65,2.11-3.09,4.97-3.8,8.05c-0.18,0.77-0.28,1.5-0.32,2.19c-0.05,0.68-0.05,1.3,0.04,1.87
								c0.16,1.14,0.61,2.06,1.32,2.62c0.61-0.49,1.24-1.01,1.79-1.65c0.55-0.64,1.06-1.33,1.52-2.05c0.86-1.51,1.54-3.11,1.74-4.77
								c0.12-0.82,0.14-1.57,0.09-2.24c-0.07-0.69-0.24-1.3-0.45-1.83C-337.42,167.16-338.1,166.43-338.92,166.04z"/>
							<path d="M-332.83,158.31c-0.53,0.99-0.89,2.16-1.22,3.36c-0.15,0.61-0.25,1.24-0.31,1.88c-0.08,0.63-0.14,1.26-0.13,1.91
								c0.05,2.58,0.73,4.41,2.08,5.02c1.59-1.94,2.56-4.92,2.39-7.57C-330.2,160.24-331.44,158.64-332.83,158.31z"/>
							<path d="M-328.58,152.48c-0.29,0.74-0.42,1.61-0.52,2.49c-0.1,0.87-0.08,1.79,0.08,2.68c0.33,1.77,1.02,2.89,2.01,3.12
								c0.2-0.38,0.37-0.79,0.52-1.22c0.12-0.44,0.21-0.9,0.28-1.37c0.12-0.94,0.12-1.9-0.05-2.79
								C-326.69,153.58-327.6,152.58-328.58,152.48z"/>
							<path d="M-334.36,186.85c-3.02,3.11-7.82,5.44-12.17,5.71c-2.19,0.13-3.93-0.18-5.21-0.82c-1.28-0.62-2.07-1.52-2.37-2.56
								c3.2-1.89,7.36-3.41,11.49-4.08c1.03-0.17,1.99-0.25,2.88-0.26c0.87-0.03,1.67,0.03,2.38,0.17
								C-335.95,185.29-334.89,185.91-334.36,186.85z"/>
							<path d="M-325.96,175.09c-0.49,0.75-1,1.54-1.66,2.24c-0.65,0.7-1.37,1.38-2.12,2.01c-0.76,0.62-1.61,1.14-2.44,1.61
								c-0.83,0.48-1.71,0.85-2.59,1.11c-0.88,0.27-1.69,0.43-2.42,0.5c-0.75,0.05-1.42,0-2.01-0.13c-1.17-0.26-2-0.83-2.45-1.62
								c0.55-0.56,1.19-1.07,1.84-1.6c0.65-0.53,1.35-1.04,2.09-1.5c1.42-0.99,3.07-1.81,4.66-2.5c0.81-0.33,1.59-0.59,2.32-0.76
								c0.71-0.18,1.37-0.29,1.97-0.31C-327.55,174.1-326.58,174.42-325.96,175.09z"/>
							<path d="M-321.2,163.36c-0.49,1.3-1.21,2.66-2.21,3.83c-0.49,0.59-1.01,1.16-1.56,1.67c-0.58,0.5-1.2,0.93-1.82,1.3
								c-2.46,1.51-4.59,1.36-5.57,0.33c1.33-2.12,3.33-4.36,5.65-5.94C-324.41,162.99-322.41,162.5-321.2,163.36z"/>
							<path d="M-320.3,154.91c-0.22,0.88-0.54,1.83-1.08,2.69c-0.54,0.86-1.19,1.65-1.91,2.28c-1.44,1.26-2.89,1.45-3.68,0.9
								c0.15-0.4,0.34-0.8,0.56-1.21c0.19-0.41,0.42-0.82,0.68-1.22c0.51-0.8,1.16-1.54,1.87-2.17
								C-322.52,154.89-321.17,154.45-320.3,154.91z"/>
							<path d="M-322.22,143.27c-0.95,0.96-1.7,2.8-2.16,4.98c-0.25,1.09-0.35,2.14-0.34,3.07c0.01,0.93,0.07,1.73,0.29,2.35
								c0.51-0.41,1.07-1.05,1.5-1.89c0.42-0.84,0.79-1.87,1.05-3.01C-321.4,146.5-321.66,144.42-322.22,143.27z"/>
							<g>
								<path d="M-324.42,153.67c-1.24,3.4-3.16,8.21-6.46,13.36c-3.25,5.16-7.9,10.66-13.98,15.28
									c-6.06,4.65-12.51,7.84-18.23,10.03c-5.73,2.18-10.73,3.43-14.3,4.09c3.63-0.15,8.79-0.98,14.72-2.91
									c5.91-1.94,12.62-5.05,18.86-9.84c6.26-4.75,10.95-10.57,14-16C-326.7,162.24-325.17,157.22-324.42,153.67z"/>
							</g>
						</g>
					</g>
				</g>
			</g>
			<polygon points="-381.86,91.36 -380.17,94.78 -376.4,95.32 -379.13,97.98 -378.49,101.73 -381.86,99.96 -385.22,101.73 
				-384.58,97.98 -387.31,95.32 -383.54,94.78 			"/>
			<g>
				<polygon points="-358.48,110.18 -356.8,113.59 -353.03,114.14 -355.76,116.8 -355.12,120.55 -358.48,118.78 -361.85,120.55 
					-361.21,116.8 -363.93,114.14 -360.17,113.59 				"/>
				<polygon points="-405.23,110.18 -403.54,113.59 -399.78,114.14 -402.5,116.8 -401.86,120.55 -405.23,118.78 -408.6,120.55 
					-407.95,116.8 -410.68,114.14 -406.91,113.59 				"/>
			</g>
		</g>
	</g>
	<g>
		<rect x="-459.95" y="408.78" style="fill:none;" width="156.98" height="38.65"/>
		<text transform="matrix(1 0 0 1 -446.2368 426.0362)"><tspan x="0" y="0" style="font-family:'Gilroy-Light'; font-size:24.6477px;">UNIVERSITY </tspan><tspan x="4.15" y="15.69" style="font-family:'Gilroy-Light'; font-size:16.8052px; letter-spacing:2;">·NAME HERE·</tspan></text>
		<g>
			<rect x="-421.29" y="311.39" style="fill:none;" width="79.66" height="55.73"/>
			<text transform="matrix(1 0 0 1 -404.4214 360.0918)" style="font-family:'Gilroy-ExtraBold'; font-size:69.5702px;">H</text>
			<rect x="-400.55" y="368.54" style="fill:none;" width="38.56" height="10.71"/>
			
				<text transform="matrix(1 0 0 1 -397.7231 376.5196)" style="font-family:'Gilroy-Light'; font-size:11.405px; letter-spacing:1;">·1985·</text>
			<path d="M-426.39,298.41v61.45l0.66,1.32c0.49,0.97,12.26,23.95,41.71,37.09l2.56,1.14l2.56-1.14
				c29.45-13.15,41.22-36.12,41.71-37.09l0.66-1.33v-61.45H-426.39z M-339.96,359.05l-0.3,0.6c-0.46,0.93-11.7,22.84-40.04,35.5
				l-1.16,0.52l-1.16-0.52c-28.35-12.66-39.58-34.57-40.04-35.5l-0.3-0.6v-57.21h83.01V359.05z"/>
			<path class="st0" d="M-342.81,304.68v53.69c0,0-10.92,21.79-38.66,34.17c-27.74-12.39-38.65-34.17-38.65-34.17v-53.69H-342.81z"
				/>
			<g>
				<path class="st1" d="M-375.01,278.74l-6.45-3.53l-6.45,3.53l-11.23-6.14v23.4h35.36v-23.4L-375.01,278.74z M-366.65,293.13
					h-29.63v-15.7l8.36,4.58l6.45-3.53l6.45,3.53l8.36-4.58V293.13z"/>
				<polygon points="-375.01,284.18 -381.46,280.65 -387.92,284.18 -394.37,280.65 -394.37,291.22 -368.56,291.22 -368.56,280.65 
									"/>
			</g>
			<g>
				<polygon points="-351.2,280.66 -349.32,284.48 -345.11,285.09 -348.15,288.06 -347.43,292.25 -351.2,290.27 -354.97,292.25 
					-354.25,288.06 -357.3,285.09 -353.09,284.48 				"/>
				<polygon points="-411.73,280.66 -409.84,284.48 -405.63,285.09 -408.68,288.06 -407.96,292.25 -411.73,290.27 -415.49,292.25 
					-414.78,288.06 -417.82,285.09 -413.61,284.48 				"/>
			</g>
		</g>
	</g>
	<g>
		<rect x="-327.01" y="31.46" style="fill:none;" width="114.02" height="39.2"/>
		<text transform="matrix(1 0 0 1 -315.5059 42.0801)"><tspan x="0" y="0" style="font-family:'Gilroy-ExtraBold'; font-size:15.1685px;">·UNIVERSITY· </tspan><tspan x="-2.11" y="25.67" style="font-family:'Gilroy-ExtraBold'; font-size:30.3371px; letter-spacing:3;">LOGO</tspan></text>
		<g>
			<g>
				<g>
					<g>
						<path d="M-212.37,49.73c-0.26,1.77-0.19,3.9,0.31,5.87c0.48,1.95,1.39,3.24,2.45,3.37c0.38-0.95,0.59-2.07,0.69-3.17
							c0.02-1.13-0.14-2.27-0.44-3.26C-210.1,50.52-211.31,49.63-212.37,49.73z"/>
						<path d="M-211.64,43.66c0.13,1.55,0.41,3.35,1.26,4.9c0.72,1.54,1.66,2.43,2.58,2.34c0.37-1.7-0.07-3.81-0.88-5.36
							C-209.61,43.98-210.78,43.41-211.64,43.66z"/>
						<path d="M-211.75,38c0.15,1.27,0.8,2.68,1.65,3.81c0.78,1.13,1.69,1.67,2.38,1.45c-0.03-0.69-0.14-1.44-0.38-2.16
							c-0.3-0.71-0.68-1.39-1.14-1.95C-210.15,38.03-211.09,37.69-211.75,38z"/>
						<path d="M-211.92,33.95c0.21,0.87,0.73,1.82,1.43,2.52c0.72,0.69,1.35,0.96,1.8,0.75c-0.17-0.92-0.75-1.94-1.44-2.64
							C-210.83,33.88-211.49,33.7-211.92,33.95z"/>
						<path d="M-203.04,50.61c-0.07,2.31-1.06,4.98-2.58,6.74c-1.55,1.76-3.03,2.19-3.96,1.62c0.27-0.99,0.64-2.04,1.19-3.05
							c0.46-1.03,1.03-2.05,1.73-2.95C-205.41,51.17-204.08,50.26-203.04,50.61z"/>
						<path d="M-203.77,42.97c0.36,1.88-0.14,4.2-1,5.9c-0.98,1.7-2.16,2.33-3.01,2.03c0.17-1.72,0.52-3.73,1.39-5.43
							C-205.63,43.77-204.69,42.84-203.77,42.97z"/>
						<path d="M-205.6,36.5c0.36,1.44,0.44,3.26-0.03,4.71c-0.54,1.47-1.34,2.15-2.06,2.05c-0.11-0.68-0.1-1.44-0.04-2.21
							c0.01-0.76,0.11-1.53,0.31-2.25C-207.02,37.35-206.32,36.5-205.6,36.5z"/>
						<path d="M-207.84,32.53c0.35,0.92,0.49,2.12,0.32,3.12c-0.15,1-0.65,1.54-1.15,1.56c-0.27-0.9-0.44-2.01-0.25-3.01
							C-208.75,33.2-208.33,32.59-207.84,32.53z"/>
						<path d="M-212.11,27.8c-0.11,0.71,0.08,1.8,0.56,2.94c0.49,1.14,1.17,2.02,1.67,2.48c0.23-0.7,0.02-1.8-0.48-2.97
							C-210.87,29.08-211.54,28.18-212.11,27.8z"/>
						<g>
							<path d="M-209.88,33.22c0.24,0.97,0.54,2.14,0.89,3.48c0.27,1.35,0.49,2.89,0.79,4.55c0.31,3.36,0.45,7.31-0.25,11.48
								c-0.68,4.17-2.01,7.9-3.48,10.95c-1.47,3.04-3.04,5.41-4.26,7c1.41-1.41,3.19-3.69,4.82-6.71c1.62-3.02,3.08-6.82,3.77-11.09
								c0.71-4.26,0.48-8.31,0.02-11.71c-0.38-1.68-0.69-3.22-1.07-4.55C-209.11,35.3-209.52,34.16-209.88,33.22z"/>
						</g>
					</g>
				</g>
			</g>
			<g>
				<g>
					<g>
						<path d="M-336.96,50.61c0.07,2.31,1.06,4.98,2.58,6.74c1.55,1.76,3.03,2.19,3.96,1.62c-0.27-0.99-0.64-2.04-1.19-3.05
							c-0.46-1.03-1.03-2.05-1.73-2.95C-334.58,51.17-335.92,50.26-336.96,50.61z"/>
						<path d="M-336.23,42.97c-0.36,1.88,0.14,4.2,1,5.9c0.98,1.7,2.16,2.33,3.01,2.03c-0.17-1.72-0.52-3.73-1.39-5.44
							C-334.37,43.77-335.31,42.84-336.23,42.97z"/>
						<path d="M-334.4,36.5c-0.36,1.44-0.44,3.26,0.03,4.71c0.54,1.47,1.34,2.14,2.07,2.05c0.11-0.68,0.1-1.44,0.04-2.21
							c-0.01-0.76-0.11-1.53-0.31-2.25C-332.98,37.35-333.68,36.5-334.4,36.5z"/>
						<path d="M-332.16,32.53c-0.34,0.92-0.49,2.12-0.32,3.12c0.15,1,0.65,1.54,1.15,1.56c0.27-0.9,0.44-2.01,0.25-3.01
							C-331.25,33.2-331.67,32.59-332.16,32.53z"/>
						<path d="M-327.63,49.73c0.26,1.77,0.2,3.9-0.31,5.87c-0.48,1.95-1.39,3.24-2.45,3.37c-0.38-0.95-0.59-2.07-0.69-3.17
							c-0.02-1.13,0.14-2.27,0.44-3.26C-329.9,50.52-328.69,49.63-327.63,49.73z"/>
						<path d="M-328.36,43.66c-0.13,1.55-0.41,3.35-1.26,4.9c-0.72,1.54-1.67,2.43-2.58,2.34c-0.37-1.7,0.07-3.81,0.88-5.36
							C-330.39,43.98-329.22,43.41-328.36,43.66z"/>
						<path d="M-328.25,38c-0.15,1.27-0.8,2.68-1.65,3.81c-0.78,1.13-1.69,1.67-2.38,1.45c0.03-0.69,0.14-1.44,0.38-2.16
							c0.3-0.71,0.68-1.39,1.14-1.95C-329.85,38.03-328.92,37.69-328.25,38z"/>
						<path d="M-328.08,33.95c-0.21,0.87-0.73,1.82-1.43,2.52c-0.72,0.69-1.35,0.96-1.8,0.75c0.17-0.92,0.75-1.94,1.43-2.64
							C-329.17,33.88-328.51,33.7-328.08,33.95z"/>
						<path d="M-327.88,27.81c-0.57,0.37-1.24,1.28-1.74,2.45c-0.5,1.17-0.71,2.27-0.49,2.97c0.5-0.45,1.18-1.34,1.67-2.48
							C-327.95,29.61-327.77,28.52-327.88,27.81z"/>
						<g>
							<path d="M-330.11,33.23c-0.36,0.93-0.77,2.07-1.24,3.39c-0.38,1.34-0.69,2.88-1.07,4.55c-0.46,3.39-0.7,7.44,0.02,11.7
								c0.69,4.26,2.15,8.06,3.77,11.08c1.63,3.02,3.41,5.3,4.82,6.71c-1.22-1.58-2.79-3.95-4.26-6.99
								c-1.46-3.04-2.8-6.78-3.48-10.94c-0.7-4.16-0.56-8.11-0.25-11.47c0.3-1.66,0.52-3.2,0.79-4.55
								C-330.65,35.37-330.34,34.2-330.11,33.23z"/>
						</g>
					</g>
				</g>
			</g>
		</g>
	</g>
</g>
<g id="Capa_4">
	<g>
		<g>
			<path d="M62.74,408.95v-34.31h3.9v34.31c0,8.39,5.23,14.28,14.95,14.28c9.79,0,15.02-5.89,15.02-14.28v-34.31h3.9v34.31
				c0,10.9-7.58,18.04-18.92,18.04S62.74,419.85,62.74,408.95z"/>
			<path d="M150.35,374.64v51.54h-3.46l-30.41-44.32v44.32h-3.9v-51.54h3.39l30.48,44.32v-44.32H150.35z"/>
			<path d="M167.07,374.64v51.54h-3.9v-51.54H167.07z"/>
			<path d="M174.43,374.64h4.27l17.01,46.46l17.08-46.46h4.2l-19.22,51.54h-4.12L174.43,374.64z"/>
			<path d="M254.09,422.5v3.68h-29.67v-51.54h29.3v3.68h-25.4v20.03h23.56v3.68h-23.56v20.47H254.09z"/>
			<path d="M283.83,405.05h-16.27v21.13h-3.9v-51.54h20.32c8.39,0,15.24,6.85,15.24,15.24c0,7-4.79,12.88-11.34,14.65l12.81,21.65
				h-4.49L283.83,405.05z M267.56,401.37h16.42c6.26,0,11.34-5.15,11.34-11.49c0-6.41-5.08-11.56-11.34-11.56h-16.42V401.37z"/>
			<path d="M304.96,414.84l3.39-1.99c1.77,6.18,6.99,10.38,15.46,10.38c8.61,0,12.96-4.42,12.96-10.31c0-6.18-5.45-8.54-13.33-11.04
				c-8.61-2.8-16.34-5.23-16.34-14.21c0-8.47,6.85-13.84,15.61-13.84c8.47,0,14.06,4.86,16.57,10.82l-3.31,1.84
				c-1.91-4.64-5.89-8.91-13.25-8.91c-7.14,0-11.63,4.2-11.63,9.94c0,6.18,5.23,8.1,12.59,10.53c9.13,3.02,17.08,5.89,17.08,14.8
				c0,8.54-6.7,14.14-16.93,14.14C314.16,426.99,307.32,422.13,304.96,414.84z"/>
			<path d="M353.85,374.64v51.54h-3.9v-51.54H353.85z"/>
			<path d="M398.31,378.32h-16.2v47.86h-3.98v-47.86h-16.2v-3.68h36.37V378.32z"/>
			<path d="M423.42,404.98v21.2h-3.9v-21.2l-18.77-30.33h4.42l16.34,26.58l16.27-26.58h4.42L423.42,404.98z"/>
			<path d="M72.03,455.71c0-1.25,0.95-2.26,2.26-2.26c1.26,0,2.26,1,2.26,2.26s-1,2.26-2.26,2.26
				C72.98,457.97,72.03,456.97,72.03,455.71z"/>
			<path d="M117.26,437.89v35.14h-2.36l-20.73-30.22v30.22H91.5v-35.14h2.31l20.78,30.22v-30.22H117.26z"/>
			<path d="M153.75,464.1h-17.62l-3.41,8.94h-2.81l13.66-35.14h2.81l13.6,35.14h-2.81L153.75,464.1z M152.79,461.58l-7.83-20.43
				l-7.83,20.43H152.79z"/>
			<path d="M204.4,473.03h-2.66v-31.23l-13,21.59h-0.45l-13-21.59v31.23h-2.66v-35.14h3.31l12.55,20.78l12.55-20.78h3.36V473.03z"/>
			<path d="M240.89,470.52v2.51h-20.23v-35.14h19.98v2.51h-17.32v13.65h16.06v2.51h-16.06v13.96H240.89z"/>
			<path d="M301.63,437.89v35.14h-2.66v-16.82h-20.43v16.82h-2.66v-35.14h2.66v15.81h20.43v-15.81H301.63z"/>
			<path d="M338.12,470.52v2.51h-20.23v-35.14h19.98v2.51h-17.32v13.65h16.06v2.51h-16.06v13.96H338.12z"/>
			<path d="M365.93,458.62h-11.09v14.41h-2.66v-35.14h13.86c5.72,0,10.39,4.67,10.39,10.39c0,4.77-3.26,8.79-7.73,9.99l8.74,14.76
				h-3.06L365.93,458.62z M354.84,456.11h11.19c4.27,0,7.73-3.51,7.73-7.83c0-4.37-3.46-7.88-7.73-7.88h-11.19V456.11z"/>
			<path d="M410.71,470.52v2.51h-20.23v-35.14h19.98v2.51h-17.32v13.65h16.06v2.51h-16.06v13.96H410.71z"/>
			<path d="M423.51,455.71c0-1.25,0.95-2.26,2.26-2.26c1.26,0,2.26,1,2.26,2.26s-1,2.26-2.26,2.26
				C424.46,457.97,423.51,456.97,423.51,455.71z"/>
		</g>
		<g>
			<g>
				<path d="M189.85,221.8l31.03-17.99c5.62,13.04,15.29,21.81,33.05,21.81c17.09,0,21.36-6.75,21.36-12.82
					c0-9.67-8.99-13.49-32.6-20.01c-23.38-6.52-46.32-17.76-46.32-47.89c0-30.35,25.63-47.89,52.84-47.89
					c25.86,0,46.09,12.37,57.56,35.52l-30.35,17.76c-5.4-11.24-12.82-18.21-27.21-18.21c-11.24,0-16.86,5.62-16.86,11.92
					c0,7.19,3.82,12.14,28.33,19.56c23.83,7.19,50.59,15.51,50.59,48.79c0,30.35-24.28,48.34-58.46,48.34
					C219.75,260.7,198.62,244.96,189.85,221.8z"/>
			</g>
			<g>
				<path d="M143.68,176.16c0-1.42,1.17-2.59,2.59-2.59s2.59,1.17,2.59,2.59s-1.17,2.59-2.59,2.59S143.68,177.57,143.68,176.16z"/>
				<path d="M161.2,166.51v19.08h-4.36v-14.47l-3.38,0.93l-1.06-3.73l4.99-1.8H161.2z"/>
				<path d="M178.75,176.73l-5.83,8.86h-5.01l4.14-6.02c-3.79-0.3-6.35-3-6.35-6.7c0-3.95,2.89-6.73,7.09-6.73
					c4.22,0,7.08,2.78,7.08,6.73C179.87,174.33,179.46,175.66,178.75,176.73z M172.79,175.5c1.47,0,2.72-0.95,2.72-2.64
					c0-1.69-1.25-2.64-2.72-2.64c-1.44,0-2.73,0.98-2.73,2.64C170.06,174.52,171.34,175.5,172.79,175.5z"/>
				<path d="M330.15,180.22c0,3.49-2.51,5.75-7,5.75c-4.5,0-7-2.26-7-5.75c0-1.88,0.87-3.54,2.48-4.58
					c-1.12-0.87-1.83-2.13-1.83-3.84c0-3.71,2.83-5.67,6.35-5.67s6.35,1.96,6.35,5.67c0,1.72-0.71,2.97-1.83,3.84
					C329.28,176.67,330.15,178.34,330.15,180.22z M325.79,179.59c0-1.44-1.12-2.29-2.64-2.29s-2.64,0.84-2.64,2.29
					s1.12,2.29,2.64,2.29S325.79,181.03,325.79,179.59z M321.16,172.07c0,1.06,0.76,1.85,1.99,1.85s1.99-0.79,1.99-1.85
					s-0.76-1.85-1.99-1.85S321.16,171,321.16,172.07z"/>
				<path d="M347.18,179.59c0,4.2-3.27,6.38-6.95,6.38c-3.03,0-5.64-1.28-6.81-4.09l3.76-2.18c0.44,1.25,1.25,2.02,3.05,2.02
					c1.8,0,2.59-0.95,2.59-2.13s-0.79-2.13-2.45-2.13h-5.97l0.79-10.96h11.04v4.09h-6.95l-0.19,2.62h1.55
					C344.18,173.21,347.18,175.39,347.18,179.59z"/>
				<path d="M351.13,176.16c0-1.42,1.17-2.59,2.59-2.59s2.59,1.17,2.59,2.59s-1.17,2.59-2.59,2.59S351.13,177.57,351.13,176.16z"/>
			</g>
			<path d="M348.64,63.74V41.33L250,9.9l-98.64,31.43v22.41H115.8v158.09l1.98,3.96c1.46,2.9,36.62,71.52,124.59,110.79L250,340
				l7.64-3.41c87.96-39.27,123.12-107.89,124.58-110.79l1.97-3.96V63.74H348.64z M373.98,219.42l-0.9,1.8
				c-1.39,2.77-34.94,68.23-119.6,106.03L250,328.8l-3.47-1.55c-84.67-37.8-118.22-103.27-119.61-106.03l-0.9-1.8V73.97h35.56V48.8
				L250,20.63l88.41,28.17v25.17h35.56V219.42z"/>
			<path class="st0" d="M329.9,82.48V55.03L250,29.57L170.1,55.03v27.46h-35.56V217.4c0,0,32.6,65.08,115.47,102.07
				c82.86-36.99,115.46-102.07,115.46-102.07V82.48H329.9z"/>
			<g>
				<polygon points="250,50.55 255.31,61.32 267.19,63.04 258.6,71.42 260.63,83.25 250,77.66 239.38,83.25 241.41,71.42 
					232.81,63.04 244.69,61.32 				"/>
				<g>
					<polygon points="302.14,70.31 305.97,78.06 314.52,79.3 308.33,85.34 309.79,93.86 302.14,89.84 294.48,93.86 295.95,85.34 
						289.75,79.3 298.31,78.06 					"/>
					<polygon points="197.86,70.31 201.69,78.06 210.25,79.3 204.06,85.34 205.52,93.86 197.86,89.84 190.21,93.86 191.67,85.34 
						185.48,79.3 194.04,78.06 					"/>
				</g>
			</g>
			<g>
				<g>
					<polygon points="121.12,127.67 91.13,127.67 102.71,156.49 90.87,185.63 121.12,185.63 					"/>
				</g>
				<g>
					<polygon points="120.69,211.26 55.62,211.26 77.93,156.36 56.08,102.04 120.69,102.04 120.69,112.26 71.2,112.26 88.95,156.38 
						70.8,201.04 120.69,201.04 					"/>
				</g>
				<g>
					<polygon points="378.89,185.63 408.87,185.63 397.29,156.81 409.13,127.67 378.89,127.67 					"/>
				</g>
				<g>
					<polygon points="443.93,211.26 379.31,211.26 379.31,201.04 428.8,201.04 411.05,156.91 429.2,112.26 379.31,112.26 
						379.31,102.04 444.38,102.04 422.08,156.93 					"/>
				</g>
			</g>
		</g>
	</g>
</g>
<g id="Capa_5">
	<g>
		<g>
			<g>
				<path class="st2" d="M711.67,293.29l31.03-17.99c5.62,13.04,15.29,21.81,33.05,21.81c17.09,0,21.36-6.75,21.36-12.82
					c0-9.67-8.99-13.49-32.6-20.01c-23.38-6.52-46.32-17.76-46.32-47.89c0-30.35,25.63-47.89,52.84-47.89
					c25.86,0,46.09,12.37,57.56,35.52l-30.35,17.76c-5.4-11.24-12.82-18.21-27.21-18.21c-11.24,0-16.86,5.62-16.86,11.92
					c0,7.19,3.82,12.14,28.33,19.56c23.83,7.19,50.59,15.51,50.59,48.79c0,30.35-24.28,48.34-58.46,48.34
					C741.58,332.19,720.44,316.45,711.67,293.29z"/>
			</g>
			<g>
				<path class="st2" d="M665.5,247.64c0-1.42,1.17-2.59,2.59-2.59s2.59,1.17,2.59,2.59s-1.17,2.59-2.59,2.59
					S665.5,249.06,665.5,247.64z"/>
				<path class="st2" d="M683.02,237.99v19.08h-4.36V242.6l-3.38,0.93l-1.06-3.73l4.99-1.8H683.02z"/>
				<path class="st2" d="M700.58,248.21l-5.83,8.86h-5.01l4.14-6.02c-3.79-0.3-6.35-3-6.35-6.7c0-3.95,2.89-6.73,7.09-6.73
					c4.22,0,7.08,2.78,7.08,6.73C701.69,245.82,701.28,247.15,700.58,248.21z M694.61,246.99c1.47,0,2.72-0.95,2.72-2.64
					c0-1.69-1.25-2.64-2.72-2.64c-1.44,0-2.73,0.98-2.73,2.64C691.88,246.01,693.16,246.99,694.61,246.99z"/>
				<path class="st2" d="M851.97,251.7c0,3.49-2.51,5.75-7,5.75c-4.5,0-7-2.26-7-5.75c0-1.88,0.87-3.54,2.48-4.58
					c-1.12-0.87-1.83-2.13-1.83-3.84c0-3.71,2.83-5.67,6.35-5.67s6.35,1.96,6.35,5.67c0,1.72-0.71,2.97-1.83,3.84
					C851.1,248.16,851.97,249.82,851.97,251.7z M847.61,251.07c0-1.44-1.12-2.29-2.64-2.29s-2.64,0.84-2.64,2.29
					c0,1.44,1.12,2.29,2.64,2.29S847.61,252.52,847.61,251.07z M842.98,243.55c0,1.06,0.76,1.85,1.99,1.85s1.99-0.79,1.99-1.85
					s-0.76-1.85-1.99-1.85S842.98,242.49,842.98,243.55z"/>
				<path class="st2" d="M869,251.07c0,4.2-3.27,6.38-6.95,6.38c-3.03,0-5.64-1.28-6.81-4.09l3.76-2.18
					c0.44,1.25,1.25,2.02,3.05,2.02c1.8,0,2.59-0.95,2.59-2.13c0-1.17-0.79-2.12-2.45-2.12h-5.97l0.79-10.96h11.04v4.09h-6.95
					l-0.19,2.62h1.55C866.01,244.7,869,246.88,869,251.07z"/>
				<path class="st2" d="M872.96,247.64c0-1.42,1.17-2.59,2.59-2.59s2.59,1.17,2.59,2.59s-1.17,2.59-2.59,2.59
					S872.96,249.06,872.96,247.64z"/>
			</g>
			<path class="st2" d="M870.46,135.23v-22.41l-98.64-31.43l-98.64,31.43v22.41h-35.57v158.09l1.98,3.96
				c1.46,2.9,36.62,71.52,124.59,110.79l7.64,3.41l7.64-3.41c87.96-39.27,123.12-107.89,124.58-110.79l1.97-3.96V135.23H870.46z
				 M895.8,290.9l-0.9,1.8c-1.39,2.77-34.94,68.23-119.6,106.04l-3.47,1.55l-3.47-1.55c-84.67-37.8-118.22-103.27-119.61-106.04
				l-0.9-1.8V145.45h35.56v-25.17l88.42-28.17l88.41,28.17v25.17h35.56V290.9z"/>
			<path class="st3" d="M851.72,153.97v-27.46l-79.9-25.46l-79.91,25.46v27.46h-35.56v134.92c0,0,32.6,65.08,115.47,102.07
				c82.86-36.99,115.46-102.07,115.46-102.07V153.97H851.72z"/>
			<g>
				<polygon class="st2" points="771.82,122.04 777.13,132.8 789.01,134.53 780.42,142.9 782.45,154.73 771.82,149.15 761.2,154.73 
					763.23,142.9 754.63,134.53 766.51,132.8 				"/>
				<g>
					<polygon class="st2" points="823.96,141.79 827.79,149.55 836.34,150.79 830.16,156.83 831.61,165.35 823.96,161.32 
						816.31,165.35 817.77,156.83 811.57,150.79 820.14,149.55 					"/>
					<polygon class="st2" points="719.68,141.79 723.51,149.55 732.07,150.79 725.88,156.83 727.34,165.35 719.68,161.32 
						712.03,165.35 713.5,156.83 707.31,150.79 715.86,149.55 					"/>
				</g>
			</g>
			<g>
				<g>
					<polygon class="st2" points="642.94,199.16 612.95,199.16 624.53,227.97 612.69,257.11 642.94,257.11 					"/>
				</g>
				<g>
					<polygon class="st2" points="642.51,282.75 577.44,282.75 599.75,227.85 577.9,173.52 642.51,173.52 642.51,183.74 
						593.02,183.74 610.78,227.87 592.63,272.53 642.51,272.53 					"/>
				</g>
				<g>
					<polygon class="st2" points="900.71,257.11 930.69,257.11 919.11,228.3 930.95,199.16 900.71,199.16 					"/>
				</g>
				<g>
					<polygon class="st2" points="965.75,282.75 901.13,282.75 901.13,272.53 950.62,272.53 932.87,228.4 951.02,183.74 
						901.13,183.74 901.13,173.52 966.2,173.52 943.9,228.42 					"/>
				</g>
			</g>
		</g>
	</g>
</g>
</svg>
